<svg width="1200" height="630" viewBox="0 0 1200 630" fill="none" xmlns="http://www.w3.org/2000/svg">
  <rect width="1200" height="630" fill="url(#gradient)"/>
  
  <!-- Logo/Icon -->
  <circle cx="600" cy="200" r="60" fill="white" opacity="0.2"/>
  <text x="600" y="220" font-family="Arial, sans-serif" font-size="60" text-anchor="middle" fill="white">🚀</text>
  
  <!-- Title -->
  <text x="600" y="320" font-family="Arial, sans-serif" font-size="56" font-weight="bold" text-anchor="middle" fill="white">
    Superchain Token Explorer
  </text>
  
  <!-- Subtitle -->
  <text x="600" y="380" font-family="Arial, sans-serif" font-size="28" text-anchor="middle" fill="white" opacity="0.9">
    Track new token deployments across the Optimism ecosystem
  </text>
  
  <!-- OP Stack Chains -->
  <g transform="translate(300, 450)">
    <rect x="0" y="0" width="120" height="40" rx="20" fill="white" opacity="0.2"/>
    <text x="60" y="27" font-family="Arial, sans-serif" font-size="18" text-anchor="middle" fill="white">Base</text>
  </g>
  
  <g transform="translate(440, 450)">
    <rect x="0" y="0" width="120" height="40" rx="20" fill="white" opacity="0.2"/>
    <text x="60" y="27" font-family="Arial, sans-serif" font-size="18" text-anchor="middle" fill="white">Optimism</text>
  </g>
  
  <g transform="translate(580, 450)">
    <rect x="0" y="0" width="120" height="40" rx="20" fill="white" opacity="0.2"/>
    <text x="60" y="27" font-family="Arial, sans-serif" font-size="18" text-anchor="middle" fill="white">Mode</text>
  </g>
  
  <g transform="translate(720, 450)">
    <rect x="0" y="0" width="120" height="40" rx="20" fill="white" opacity="0.2"/>
    <text x="60" y="27" font-family="Arial, sans-serif" font-size="18" text-anchor="middle" fill="white">Zora</text>
  </g>
  
  <!-- OP Stack Badge -->
  <g transform="translate(480, 520)">
    <rect x="0" y="0" width="240" height="50" rx="25" fill="#FF0420"/>
    <text x="120" y="33" font-family="Arial, sans-serif" font-size="20" font-weight="bold" text-anchor="middle" fill="white">
      🟢 OP Stack Native
    </text>
  </g>
  
  <defs>
    <linearGradient id="gradient" x1="0%" y1="0%" x2="100%" y2="100%">
      <stop offset="0%" style="stop-color:#1e3a8a;stop-opacity:1" />
      <stop offset="50%" style="stop-color:#7c3aed;stop-opacity:1" />
      <stop offset="100%" style="stop-color:#dc2626;stop-opacity:1" />
    </linearGradient>
  </defs>
</svg>